<svg width="135" height="135" viewBox="0 0 135 135" fill="none" xmlns="http://www.w3.org/2000/svg">
<path d="M22.6503 116.024C20.4196 116.622 18.3783 114.58 18.976 112.35L27.4641 80.6718C28.0618 78.4411 30.8502 77.694 32.4832 79.327L55.673 102.517C57.306 104.15 56.5588 106.938 54.3281 107.536L22.6503 116.024Z" fill="white"/>
<path d="M112.35 18.9761C114.58 18.3784 116.622 20.4196 116.024 22.6504L107.536 54.3282C106.938 56.5589 104.15 57.306 102.517 55.673L79.327 32.4833C77.694 30.8503 78.4412 28.0619 80.6719 27.4642L112.35 18.9761Z" fill="white"/>
<path d="M38.8578 45.6508L40.7862 43.7224L64.2172 51.3398L61.1316 54.4254L43.4861 48.2543L43.7754 48.1578L43.2933 48.64L43.3897 48.3507L49.5608 65.9962L46.4752 69.0818L38.8578 45.6508ZM86.3012 58.7674L48.7924 80.3663L46.189 77.7629L83.6978 56.164L86.3012 58.7674ZM88.8534 95.6465L65.4225 88.029L68.508 84.9434L86.1536 91.1146L85.8643 91.211L86.3464 90.7289L86.25 91.0181L80.0789 73.3726L83.1644 70.2871L90.7819 93.718L88.8534 95.6465Z" fill="white"/>
</svg>

